# xmcd CD database file
#
# Track frame offsets:
#	150
#	16141
#	34062
#	49805
#	72401
#	87863
#	103376
#	120670
#	135782
#	151333
#	164413
#	179719
#	197942
#	211964
#	227744
#	246506
#	263073
#	278048
#	294320
#	311530
#
# Disc length: 4309 seconds
#
# Revision: 0
# Processed by: cddbd v1.5.2PL0 Copyright (c) Steve Scherf et al.
# Submitted via: CDex 1.91
#
DISCID=2210d314
DTITLE=Various Artist - USA Country Top60
DYEAR=2004
DGENRE=Country
TTITLE0=Nothing On But The Radio (Gary Allaen)
TTITLE1=The Woman With You (Kenny Chesney)
TTITLE2=Mr. Mom (Lonestar)
TTITLE3=Back When (Tim Mcgraw)
TTITLE4=Some Beach (Blake Shelton)
TTITLE5=That's What It's All About (Brooks and Dunn)
TTITLE6=How Am I Doin' (Dierks Bentley)
TTITLE7=Awful Beautiful Life (Darryl Worley)
TTITLE8=Party For Two (Shania Twain and Billy Currington)
TTITLE9=Nothin' Bout Love Makes Sense (LeAnn Rimes)
TTITLE10=Monday Morning Church (Alan Jackson)
TTITLE11=Come Home Soon (Shedaisy)
TTITLE12=Mud On The Tires (Brad Paisley)
TTITLE13=In A Real Love (Phil Vassar)
TTITLE14=When I Think About Cheatin' (Gretchen Wilson)
TTITLE15=He Gets That From Me (Reba Mcentire)
TTITLE16=Trip Around The Sun (Jimmy Buffet and Martina McBride)
TTITLE17=Stays In Mexico (Toby Keith)
TTITLE18=Holy Water (Big and Rich)
TTITLE19=Nothin' To Lose (Josh Gracin)
EXTD=YEAR: 2004
EXTT0=
EXTT1=
EXTT2=
EXTT3=
EXTT4=
EXTT5=
EXTT6=
EXTT7=
EXTT8=
EXTT9=
EXTT10=
EXTT11=
EXTT12=
EXTT13=
EXTT14=
EXTT15=
EXTT16=
EXTT17=
EXTT18=
EXTT19=
PLAYORDER=
